<svg width="239" height="239" viewBox="0 0 239 239" fill="none" xmlns="http://www.w3.org/2000/svg">
<g id="material-symbols:verified-rounded" filter="url(#filter0_d_1_434)">
<path id="Vector" d="M109.044 126.471L94.6042 112.28C92.7785 110.454 90.498 109.542 87.7628 109.542C85.0276 109.542 82.6608 110.537 80.6625 112.529C78.8368 114.355 77.924 116.678 77.924 119.5C77.924 122.321 78.8368 124.645 80.6625 126.471L102.073 147.881C104.065 149.873 106.388 150.869 109.044 150.869C111.699 150.869 114.023 149.873 116.015 147.881L158.338 105.558C160.329 103.567 161.282 101.243 161.196 98.5874C161.109 95.9318 160.157 93.6082 158.338 91.6166C156.346 89.6249 153.982 88.5892 151.247 88.5096C148.512 88.4299 146.145 89.3826 144.147 91.3676L109.044 126.471ZM81.1604 216.594L66.7209 192.196L39.3354 186.221C36.8459 185.723 34.8542 184.438 33.3604 182.367C31.8667 180.296 31.2858 178.012 31.6177 175.516L34.3563 147.383L15.6844 125.973C14.0247 124.147 13.1948 121.989 13.1948 119.5C13.1948 117.01 14.0247 114.853 15.6844 113.027L34.3563 91.6166L31.6177 63.4843C31.2858 60.9947 31.8667 58.7109 33.3604 56.6329C34.8542 54.555 36.8459 53.2703 39.3354 52.7791L66.7209 46.8041L81.1604 22.4062C82.4882 20.2485 84.3139 18.7946 86.6375 18.0444C88.9611 17.2942 91.2848 17.4203 93.6084 18.4228L119.5 29.377L145.392 18.4228C147.715 17.427 150.039 17.3008 152.363 18.0444C154.686 18.788 156.512 20.2419 157.84 22.4062L172.279 46.8041L199.665 52.7791C202.154 53.277 204.146 54.5649 205.64 56.6429C207.133 58.7209 207.714 61.0013 207.382 63.4843L204.644 91.6166L223.316 113.027C224.975 114.853 225.805 117.01 225.805 119.5C225.805 121.989 224.975 124.147 223.316 125.973L204.644 147.383L207.382 175.516C207.714 178.005 207.133 180.289 205.64 182.367C204.146 184.445 202.154 185.729 199.665 186.221L172.279 192.196L157.84 216.594C156.512 218.751 154.686 220.205 152.363 220.955C150.039 221.706 147.715 221.579 145.392 220.577L119.5 209.623L93.6084 220.577C91.2848 221.573 88.9611 221.699 86.6375 220.955C84.3139 220.212 82.4882 218.758 81.1604 216.594Z" fill="#DF0F0F"/>
</g>
<defs>
<filter id="filter0_d_1_434" x="-4" y="0" width="247" height="249" filterUnits="userSpaceOnUse" color-interpolation-filters="sRGB">
<feFlood flood-opacity="0" result="BackgroundImageFix"/>
<feColorMatrix in="SourceAlpha" type="matrix" values="0 0 0 0 0 0 0 0 0 0 0 0 0 0 0 0 0 0 127 0" result="hardAlpha"/>
<feOffset dy="6"/>
<feGaussianBlur stdDeviation="2"/>
<feComposite in2="hardAlpha" operator="out"/>
<feColorMatrix type="matrix" values="0 0 0 0 0 0 0 0 0 0 0 0 0 0 0 0 0 0 0.45 0"/>
<feBlend mode="normal" in2="BackgroundImageFix" result="effect1_dropShadow_1_434"/>
<feBlend mode="normal" in="SourceGraphic" in2="effect1_dropShadow_1_434" result="shape"/>
</filter>
</defs>
</svg>
