<svg width="242" height="161" viewBox="0 0 242 161" fill="none" xmlns="http://www.w3.org/2000/svg">
<g id="OrgSync Logo" filter="url(#filter0_d_55_98)">
<path fill-rule="evenodd" clip-rule="evenodd" d="M120.672 18.6227C116.934 12.8688 109.37 7.17137 99.7595 3.52641C83.9882 -2.4551 68.6772 -0.644267 65.5614 7.57103C63.4583 13.1161 67.4488 20.1616 75.1147 25.9952L54.3209 41.5362C51.6806 40.3268 48.8606 39.252 45.8961 38.3474C26.2615 32.3558 7.72121 36.0952 4.48516 46.6997C1.24912 57.3041 14.5428 70.758 34.1773 76.7496C39.6267 78.4125 44.9917 79.3259 49.9687 79.551L60.1256 94.4569C51.5112 96.0159 44.8574 100.275 42.1998 106.87C36.8744 120.084 49.6127 137.669 70.6516 146.148C91.6905 154.627 113.063 150.789 118.388 137.575C120.173 133.146 119.929 128.227 118.024 123.324L150.452 122.607C154.738 128.431 161.286 134.088 169.4 138.481C187.66 148.366 206.94 148.11 212.463 137.908C217.503 128.598 209.346 114.224 194.005 104.269L205.341 80.7645C219.854 87.3849 233.731 87.5614 237.202 80.851C240.918 73.667 231.3 61.3099 215.719 53.2508C208.39 49.4601 201.048 47.2954 194.939 46.8134L187.815 40.1772C190.927 39.4164 193.133 37.9429 193.995 35.7713C196.482 29.5047 186.842 19.7975 172.462 14.0896C158.082 8.38168 144.408 8.83459 141.921 15.1012C141.329 16.593 141.424 18.2799 142.107 20.0614L120.672 18.6227ZM180.834 40.7584L187.555 47.1903C184.347 47.896 181.96 49.3822 180.779 51.6663C179.472 54.1924 179.814 57.3581 181.484 60.7516L155.677 59.8123C153.454 57.3751 150.666 54.9906 147.424 52.7889L162.326 36.323C162.699 36.479 163.075 36.6323 163.454 36.7828C169.66 39.2461 175.734 40.5619 180.834 40.7584ZM69.7103 93.8245C76.1033 94.0597 83.0379 95.5155 89.9367 98.2958C90.8263 98.6543 91.701 99.0291 92.5602 99.4192L117.157 74.7815C110.628 71.1433 105.42 66.7247 102.183 62.2895L75.6411 61.826C76.2217 64.075 76.2307 66.2923 75.5883 68.3974C73.8479 74.1005 67.681 77.8181 59.298 79.1042L69.7103 93.8245ZM146.76 116.359C144.451 111.171 144.145 106.161 146.338 102.11C148.177 98.7129 151.541 96.4187 155.884 95.2342L144.551 82.6723C138.865 82.613 132.254 81.3046 125.517 78.6967L101.962 104.69C107.021 108.144 111.18 112.145 114.185 116.348L146.76 116.359ZM152.263 81.8358L163.822 94.2878C170.207 94.3299 177.597 96.0169 185.014 99.362L197.529 76.5775C192.162 73.2367 187.752 69.4274 184.696 65.6569L159.607 65.1979C161.621 68.8809 162.169 72.4675 160.874 75.5131C159.546 78.6337 156.468 80.7544 152.263 81.8358ZM156.723 33.6462C151.943 31.056 148.021 28.0681 145.36 25.0884L123.005 23.9931C123.385 25.8238 123.296 27.5934 122.674 29.232C121.324 32.7926 117.683 35.1501 112.706 36.1917L118.981 42.3037C124.427 42.8043 130.501 44.3354 136.612 46.9342C138.22 47.6179 139.772 48.3512 141.263 49.1256L156.723 33.6462ZM88.4763 33.2766C94.8994 35.7127 101.246 36.8563 106.724 36.8011L111.789 42.2762C105.564 42.8808 100.914 45.2444 99.1969 49.282C98.2756 51.4482 98.2869 53.8882 99.0948 56.4419L72.5062 55.3991C70.2397 52.2213 66.9716 49.1344 62.9308 46.3699L82.6974 30.7214C84.522 31.6516 86.4538 32.5096 88.4763 33.2766ZM114.468 26.0711C116.457 20.8276 108.86 13.0835 97.5003 8.77427C86.1402 4.46503 75.3186 5.22243 73.3296 10.466C71.3406 15.7095 78.9373 23.4535 90.2974 27.7628C101.657 32.072 112.479 31.3146 114.468 26.0711ZM44.7311 43.2106C59.0878 47.5914 68.8684 57.2313 66.5766 64.7421C64.2848 72.2528 50.7885 74.7901 36.4317 70.4094C22.075 66.0286 12.2945 56.3886 14.5863 48.8779C16.8781 41.3672 30.3744 38.8298 44.7311 43.2106ZM151.742 71.54C154.357 65.391 146.805 56.2921 134.873 51.217C122.942 46.1419 111.149 47.0125 108.533 53.1616C105.918 59.3106 113.47 68.4095 125.402 73.4846C137.333 78.5597 149.126 77.6891 151.742 71.54ZM202.761 132.613C206.632 125.463 199.027 113.852 185.775 106.678C172.523 99.5049 158.642 99.4856 154.772 106.635C150.902 113.785 158.507 125.397 171.759 132.57C185.011 139.744 198.891 139.763 202.761 132.613ZM87.6611 103.767C103.07 109.977 112.493 122.626 108.707 132.02C104.922 141.414 89.3612 143.995 73.9521 137.786C58.5431 131.576 49.1204 118.927 52.9061 109.533C56.6917 100.139 72.252 97.5576 87.6611 103.767ZM229.796 75.8099C232.101 71.3538 224.795 62.9976 213.479 57.1456C202.163 51.2937 191.122 50.162 188.818 54.6181C186.513 59.0741 193.819 67.4303 205.135 73.2823C216.451 79.1342 227.492 80.2659 229.796 75.8099ZM171.53 17.4823C182.449 21.8171 189.919 28.8088 188.216 33.0988C186.513 37.3888 176.281 37.3525 165.363 33.0177C154.444 28.683 146.973 21.6912 148.677 17.4013C150.38 13.1113 160.612 13.1476 171.53 17.4823Z" fill="#800000"/>
</g>
<defs>
<filter id="filter0_d_55_98" x="0" y="0" width="242" height="160.654" filterUnits="userSpaceOnUse" color-interpolation-filters="sRGB">
<feFlood flood-opacity="0" result="BackgroundImageFix"/>
<feColorMatrix in="SourceAlpha" type="matrix" values="0 0 0 0 0 0 0 0 0 0 0 0 0 0 0 0 0 0 127 0" result="hardAlpha"/>
<feOffset dy="6"/>
<feGaussianBlur stdDeviation="2"/>
<feComposite in2="hardAlpha" operator="out"/>
<feColorMatrix type="matrix" values="0 0 0 0 0 0 0 0 0 0 0 0 0 0 0 0 0 0 0.3 0"/>
<feBlend mode="normal" in2="BackgroundImageFix" result="effect1_dropShadow_55_98"/>
<feBlend mode="normal" in="SourceGraphic" in2="effect1_dropShadow_55_98" result="shape"/>
</filter>
</defs>
</svg>
